<?xml version="1.0" encoding="utf-8"?>
<!-- Generator: Adobe Illustrator 26.3.1, SVG Export Plug-In . SVG Version: 6.00 Build 0)  -->
<svg version="1.1" id="Layer_1" xmlns="http://www.w3.org/2000/svg" xmlns:xlink="http://www.w3.org/1999/xlink" x="0px" y="0px"
	 viewBox="0 0 432 432" style="enable-background:new 0 0 432 432;" xml:space="preserve">
<style type="text/css">
	.st0{fill:#5F656B;}
	.st1{fill:#0C243F;}
	.st2{fill:#E77926;}
	.st3{fill:#FFFFFF;}
</style>
<g id="Layer_2_00000083077505639291217260000006592261148563303612_">
	<g>
		<g>
			<path class="st0" d="M194.6,361v25.8c0,4,3.2,7.2,7.2,7.2l0,0c4,0,7.2-3.2,7.2-7.2V361H194.6z"/>
			<path class="st0" d="M234.8,361v25.8c0,4,3.2,7.2,7.2,7.2l0,0c4,0,7.2-3.2,7.2-7.2V361C249,361,235.2,361,234.8,361z"/>
			<path class="st0" d="M258.6,361h-73.2c-1.7,0-2.8-1.3-2.8-2.8v-4c0-1.7,1.3-2.8,2.8-2.8h73c1.7,0,2.8,1.3,2.8,2.8v4
				C261.4,359.6,260.1,361,258.6,361z"/>
		</g>
		<path class="st0" d="M249,300.2c0,4.8,0,14.3,0,14.3c5.3,1.8,7.5,5.3,7.5,9.8v21c-23.1,0-46.2,0-69.5,0c0-7,0-14,0-21
			c0-4.5,2.3-8,7.7-9.8c0-2-0.2-4-0.2-6.2L249,300.2z"/>
		<path class="st1" d="M249.1,300.2c0,4.8,0,14.3,0,14.3h-54.2c0-2-0.2-4-0.2-6.2L249.1,300.2z"/>
		<path class="st1" d="M256.6,242.7l-1.8,8.5l-0.5,5.8l-71.2,10.6c-0.3-4.5-1-9.1-2-13.6L256.6,242.7L256.6,242.7z"/>
		<path class="st1" d="M254.3,269.8v3.5v1.2c0.2,2.3,0.2,4.7,0,7l-1,5.2l-65.9,9.8l-1.2-2.7l-2.7-10.6v-3L254.3,269.8L254.3,269.8z"
			/>
		<path class="st2" d="M142.5,184.5c-2.7-4-5-8.2-7-12.5c-6.5-13.5-10-28.3-10-43.2c0.5-36.3,21.1-70,55.2-83.8
			c14.1-5.7,29.4-7.8,44.6-6.3c15,1.3,29.4,6,42.6,13.6c16.6,9.6,29.8,24.5,37.1,42.1c4.3,10.3,6.8,21.5,7.2,32.8
			c0.3,13.1-2.2,26.3-7.2,38.4c-8.5,21-28.1,43.2-41.1,63.7c-2.8-0.5-16,2-19.6,2.5l26.4-92.2c0.8-2.7-0.7-5.3-3.3-6.2
			s-5.3,0.7-6.2,3.3l-27.8,96.6l-26.3,3.8l-27.8-88.3c2,0.3,4.2-0.5,5.2-2.3l19.6-33.6l10,23c1,2.5,4,3.7,6.5,2.5
			c1.2-0.5,2.2-1.5,2.7-2.8l0,0l8.8-22.5l10.3,27.4c1,2.5,3.8,3.8,6.3,2.8c2.5-1,3.8-3.8,2.8-6.3l-14.5-38.9c-1-2.5-3.8-3.8-6.3-2.8
			c-1.3,0.5-2.3,1.5-2.8,2.7l-9.3,23.3l-9.1-21.1c-0.3-1-1.2-1.8-2-2.3c-2.3-1.3-5.3-0.7-6.7,1.7l0,0l-24.1,40.9l-1.7-5.5
			c-0.7-2.7-3.3-4.2-6-3.5s-4.2,3.3-3.5,6c0,0.2,0,0.3,0.2,0.3l31.6,100.8l-19.1,2.8c-2.5-7.5-5.7-14.6-9.5-21.5
			C161.3,206.1,151,197.6,142.5,184.5L142.5,184.5z"/>
	</g>
	<circle class="st3" cx="199.9" cy="328.7" r="5.2"/>
	<circle class="st3" cx="243.8" cy="328.7" r="5.2"/>
</g>
</svg>
