<?xml version="1.0" encoding="utf-8"?>
<!-- Generator: Adobe Illustrator 26.3.1, SVG Export Plug-In . SVG Version: 6.00 Build 0)  -->
<svg version="1.1" id="Layer_1" xmlns="http://www.w3.org/2000/svg" xmlns:xlink="http://www.w3.org/1999/xlink" x="0px" y="0px"
	 viewBox="0 0 694.5 221.1" style="enable-background:new 0 0 694.5 221.1;" xml:space="preserve">
<style type="text/css">
	.st0{fill:#5E646A;}
	.st1{fill:#0B233F;}
	.st2{fill:#E77824;}
	.st3{fill:#FFFFFF;}
	.st4{fill:#0C2340;}
	.st5{fill:#E87722;}
</style>
<g id="Layer_2_00000083077505639291217260000006592261148563303612_">
	<g>
		<g>
			<path class="st0" d="M51,198v15.5c0,2.4,1.9,4.3,4.3,4.3l0,0c2.4,0,4.3-1.9,4.3-4.3V198H51z"/>
			<path class="st0" d="M75.2,198v15.5c0,2.4,1.9,4.3,4.3,4.3l0,0c2.4,0,4.3-1.9,4.3-4.3V198C83.7,198,75.4,198,75.2,198z"/>
			<path class="st0" d="M89.5,198h-44c-1,0-1.7-0.8-1.7-1.7v-2.4c0-1,0.8-1.7,1.7-1.7h43.9c1,0,1.7,0.8,1.7,1.7v2.4
				C91.2,197.2,90.4,198,89.5,198z"/>
		</g>
		<path class="st0" d="M83.7,161.5c0,2.9,0,8.6,0,8.6c3.2,1.1,4.5,3.2,4.5,5.9v12.6c-13.9,0-27.8,0-41.8,0c0-4.2,0-8.4,0-12.6
			c0-2.7,1.4-4.8,4.6-5.9c0-1.2-0.1-2.4-0.1-3.7L83.7,161.5z"/>
		<path class="st1" d="M83.8,161.5c0,2.9,0,8.6,0,8.6H51.2c0-1.2-0.1-2.4-0.1-3.7L83.8,161.5z"/>
		<path class="st1" d="M88.3,126.9l-1.1,5.1l-0.3,3.5l-42.8,6.4c-0.2-2.7-0.6-5.5-1.2-8.2L88.3,126.9L88.3,126.9z"/>
		<path class="st1" d="M86.9,143.2v2.1v0.7c0.1,1.4,0.1,2.8,0,4.2l-0.6,3.1l-39.6,5.9l-0.7-1.6l-1.6-6.4v-1.8L86.9,143.2L86.9,143.2
			z"/>
		<path class="st2" d="M19.7,91.9c-1.6-2.4-3-4.9-4.2-7.5c-3.9-8.1-6-17-6-26C9.8,36.6,22.2,16.3,42.7,8c8.5-3.4,17.7-4.7,26.8-3.8
			c9,0.8,17.7,3.6,25.6,8.2c10,5.8,17.9,14.7,22.3,25.3c2.6,6.2,4.1,12.9,4.3,19.7c0.2,7.9-1.3,15.8-4.3,23.1
			c-5.1,12.6-16.9,26-24.7,38.3c-1.7-0.3-9.6,1.2-11.8,1.5l15.9-55.4c0.5-1.6-0.4-3.2-2-3.7s-3.2,0.4-3.7,2l-16.7,58.1l-15.8,2.3
			L41.9,70.5c1.2,0.2,2.5-0.3,3.1-1.4l11.8-20.2l6,13.8c0.6,1.5,2.4,2.2,3.9,1.5c0.7-0.3,1.3-0.9,1.6-1.7l0,0L73.6,49l6.2,16.5
			c0.6,1.5,2.3,2.3,3.8,1.7c1.5-0.6,2.3-2.3,1.7-3.8L76.6,40c-0.6-1.5-2.3-2.3-3.8-1.7c-0.8,0.3-1.4,0.9-1.7,1.6l-5.6,14L60,41.2
			c-0.2-0.6-0.7-1.1-1.2-1.4c-1.4-0.8-3.2-0.4-4,1l0,0L40.3,65.4l-1-3.3c-0.4-1.6-2-2.5-3.6-2.1s-2.5,2-2.1,3.6c0,0.1,0,0.2,0.1,0.2
			l19,60.6l-11.5,1.7c-1.5-4.5-3.4-8.8-5.7-12.9C31,104.9,24.8,99.8,19.7,91.9L19.7,91.9z"/>
	</g>
	<circle class="st3" cx="54.2" cy="178.6" r="3.1"/>
	<circle class="st3" cx="80.6" cy="178.6" r="3.1"/>
</g>
<g>
	<path class="st4" d="M133.1,171.6c0,2.3,0,4.3,0.1,6.4c0.3,3.8,2,5.1,8,4.6v9.8c-2.8,0.4-6,0.6-9.1,0.6c-7.4,0-12.3-2.7-12.8-11.3
		c-0.1-2.5-0.1-5.6-0.1-9.7V98.9h14V171.6z"/>
	<path class="st4" d="M193.2,182.4l-3.4,7.2c-4.6,3.2-10.4,4.3-16.8,4.3c-11.9,0-21.7-6.9-21.7-19.4c0-15,11.9-23.1,37.5-23.1h4.3
		v-1.7c0-2.5,0-4.8-0.3-7.4c-0.4-5.5-3.8-9.3-11.8-9.3c-8.1,0-12.3,4.6-13.1,13h-14c0.9-14.7,11.9-23.1,27.3-23.1
		c17.4,0,24.3,7.4,25.4,18.8c0.3,2.8,0.4,6.3,0.4,9.5v23.7c0,5.1,0.3,9.7,1.3,17.1h-13.8L193.2,182.4z M193,167v-6.2
		c-16.4-1.3-27.1,2.4-27.1,12.7c0,7.1,4.7,10.4,12.1,10.4C186.8,183.8,193,177.9,193,167z"/>
	<path class="st4" d="M320.4,151.5v40.8h-14v-35.7c0-5.1-0.1-8.8-0.5-12.2c-0.9-7.2-5.3-11-12.6-11c-8.1,0-13.6,6.7-13.6,25v33.9
		h-13.8v-35.7c0-5.1-0.1-8.8-0.5-12.2c-1-7.2-5.3-11-12.6-11c-8.3,0-13.6,6.7-13.6,25v33.9h-14v-67.4h14v10l4.6-7.9
		c3.6-2.8,8.3-3.9,14.4-3.9c10.7,0,17.4,5.3,19.9,12.8l6.2-8.9c3.7-2.8,8.4-3.9,14.4-3.9c12.4,0,19.6,7.2,21.1,16.5
		C320.3,142.9,320.4,146,320.4,151.5z"/>
	<path class="st4" d="M433.1,151.5v40.8h-14v-35.7c0-5.1-0.1-8.8-0.5-12.2c-0.9-7.2-5.3-11-12.6-11c-8.1,0-13.6,6.7-13.6,25v33.9
		h-13.8v-35.7c0-5.1-0.1-8.8-0.5-12.2c-1-7.2-5.3-11-12.6-11c-8.3,0-13.6,6.7-13.6,25v33.9h-14v-67.4h14v10l4.6-7.9
		c3.6-2.8,8.3-3.9,14.4-3.9c10.7,0,17.4,5.3,19.9,12.8l6.2-8.9c3.7-2.8,8.4-3.9,14.4-3.9c12.4,0,19.6,7.2,21.1,16.5
		C432.9,142.9,433.1,146,433.1,151.5z"/>
	<path class="st4" d="M517.6,157.3c0,24.8-15.2,36.7-32.6,36.7c-5.6,0-12.6-1.5-16-4.2l-4.4-6.7v34h-14v-92.3h14v10.5l5.1-7.2
		c3.8-3.2,10.8-5.1,17.7-5.1C506.6,123,517.6,137.6,517.6,157.3z M502.9,158.6c0-14.6-6.7-25.4-18.9-25.4
		c-10.4,0-19.4,6.6-19.4,24.6v3.4c0,16.5,9.9,22.6,18.8,22.6C494.5,183.8,502.9,175.3,502.9,158.6z"/>
	<path class="st4" d="M578,144.1h-14.2c-1.4-7.1-5.6-11.3-12.4-11.3c-6.6,0-9.8,3.7-9.8,8.8c0,6.1,5,8.6,15,11.3
		c14.7,3.8,22.5,9.7,22.5,21.6c0,13.1-11.6,19.6-26.3,19.6c-15,0-26-6.7-27.9-22h14.1c1.7,8.6,7.4,12.1,14.4,12.1
		c6.5,0,11.7-2.8,11.7-8.6c0-5.8-4.6-9-16-12.1c-12.3-3.2-21.5-8.4-21.5-20.2c0-12.6,9.9-20.2,24.9-20.2
		C567.8,123,576.4,131.8,578,144.1z"/>
	<path class="st5" d="M606.8,109.3c0,4.7-3.6,8.1-8.3,8.1s-8.1-3.4-8.1-8.1c0-4.6,3.4-8,8.1-8S606.8,104.7,606.8,109.3z
		 M591.6,192.2v-67.4h14v67.4H591.6z"/>
	<path class="st5" d="M687.2,158.4c0,19.7-11.6,35.6-34.2,35.6c-22.7,0-34.2-15.9-34.2-35.6c0-19.7,11.4-35.4,34.2-35.4
		C675.6,123,687.2,138.8,687.2,158.4z M672.3,158.4c0-15.2-7.1-25.3-19.3-25.3c-12.3,0-19.4,10-19.4,25.3c0,15.2,7.1,25.4,19.4,25.4
		C665.2,183.8,672.3,173.7,672.3,158.4z"/>
</g>
</svg>
